# xmcd
#
# Track frame offsets: 
#        150
#        18196
#        34654
#        50562
#        67704
#        83808
#        103316
#        118841
#        131156
#        142883
#        156170
#        168644
#        187112
#        203366
#        214502
#        226671
#
# Disc length: 3186 seconds
#
# Revision: 0
# Processed by: cddbd v1.5.1PL2 Copyright (c) Steve Scherf et al.
# Submitted via: ExactAudioCopy v0.95b4
#
DISCID=d40c7010
DTITLE=Various Artist - Bassa nova
DYEAR=1900
DGENRE=
TTITLE0=Agua De Beber （飲水）
TTITLE1=Estra Do sol（陽光之路）
TTITLE2=Pretty World（美麗新世界）
TTITLE3=Corcovado（靜夜星空）
TTITLE4=Desafinado（走音的快感）
TTITLE5=You are the sunshine of my life（你是我的太陽）
TTITLE6=Cachaca Mechanica（大葡萄）
TTITLE7=O Pato（鴨子）
TTITLE8=Pela Rua（那條街）
TTITLE9=A Banca Do Distinto（高傲的人）
TTITLE10=Pra Que Chorar（感動的淚\水）
TTITLE11=Un Homme Et Une Femme（男歡女愛）
TTITLE12='O Sole Mio（我的太陽）
TTITLE13=Tamanco No Samba（森巴節奏）
TTITLE14=Mormaco（薄霧豔陽天）
TTITLE15=Da Cor Do Pecado（罪惡的顏色）
EXTD=
EXTT0=
EXTT1=
EXTT2=
EXTT3=
EXTT4=
EXTT5=
EXTT6=
EXTT7=
EXTT8=
EXTT9=
EXTT10=
EXTT11=
EXTT12=
EXTT13=
EXTT14=
EXTT15=
PLAYORDER=
